{"buffers":[{"uri":"Hugot_3D_v1 v1.bin","byteLength":639060}],"asset":{"version":"2.0","generator":"gltfpack 0.16"},"bufferViews":[{"buffer":0,"byteOffset":0,"byteLength":253704,"byteStride":12,"target":34962},{"buffer":0,"byteOffset":253704,"byteLength":253704,"byteStride":12,"target":34962},{"buffer":0,"byteOffset":507408,"byteLength":131652,"target":34963}],"accessors":[{"bufferView":0,"byteOffset":0,"componentType":5126,"count":12889,"type":"VEC3","min":[-17.5,-17.5,-1],"max":[17.5,17.5,90]},{"bufferView":1,"byteOffset":0,"componentType":5126,"count":12889,"type":"VEC3"},{"bufferView":2,"byteOffset":0,"componentType":5123,"count":39375,"type":"SCALAR"},{"bufferView":0,"byteOffset":154668,"componentType":5126,"count":1792,"type":"VEC3","min":[-10,-10,70],"max":[9.98369122,10,90]},{"bufferView":1,"byteOffset":154668,"componentType":5126,"count":1792,"type":"VEC3"},{"bufferView":2,"byteOffset":78750,"componentType":5123,"count":6336,"type":"SCALAR"},{"bufferView":0,"byteOffset":176172,"componentType":5126,"count":114,"type":"VEC3","min":[-9.68467522,-9.68467522,90],"max":[9.68467522,9.68467522,90]},{"bufferView":1,"byteOffset":176172,"componentType":5126,"count":114,"type":"VEC3"},{"bufferView":2,"byteOffset":91422,"componentType":5123,"count":354,"type":"SCALAR"},{"bufferView":0,"byteOffset":177540,"componentType":5126,"count":4113,"type":"VEC3","min":[-9.39999962,-9.39999962,70],"max":[9.39999962,9.39999962,71]},{"bufferView":1,"byteOffset":177540,"componentType":5126,"count":4113,"type":"VEC3"},{"bufferView":2,"byteOffset":92130,"componentType":5123,"count":13059,"type":"SCALAR"},{"bufferView":0,"byteOffset":226896,"componentType":5126,"count":332,"type":"VEC3","min":[-10,-10,37.5],"max":[12.5,10,50]},{"bufferView":1,"byteOffset":226896,"componentType":5126,"count":332,"type":"VEC3"},{"bufferView":2,"byteOffset":118248,"componentType":5123,"count":996,"type":"SCALAR"},{"bufferView":0,"byteOffset":230880,"componentType":5126,"count":112,"type":"VEC3","min":[-10,-10,37.5],"max":[12.5,10,50]},{"bufferView":1,"byteOffset":230880,"componentType":5126,"count":112,"type":"VEC3"},{"bufferView":2,"byteOffset":120240,"componentType":5123,"count":336,"type":"SCALAR"},{"bufferView":0,"byteOffset":232224,"componentType":5126,"count":326,"type":"VEC3","min":[-12.4836912,-9.99592209,25],"max":[12.5,9.99592209,37.5]},{"bufferView":1,"byteOffset":232224,"componentType":5126,"count":326,"type":"VEC3"},{"bufferView":2,"byteOffset":120912,"componentType":5123,"count":978,"type":"SCALAR"},{"bufferView":0,"byteOffset":236136,"componentType":5126,"count":110,"type":"VEC3","min":[-12.4836912,-9.99592209,25],"max":[12.5,9.99592209,37.5]},{"bufferView":1,"byteOffset":236136,"componentType":5126,"count":110,"type":"VEC3"},{"bufferView":2,"byteOffset":122868,"componentType":5123,"count":330,"type":"SCALAR"},{"bufferView":0,"byteOffset":237456,"componentType":5126,"count":954,"type":"VEC3","min":[-10,-9.98308182,50],"max":[10,9.98308182,71]},{"bufferView":1,"byteOffset":237456,"componentType":5126,"count":954,"type":"VEC3"},{"bufferView":2,"byteOffset":123528,"componentType":5123,"count":2862,"type":"SCALAR"},{"bufferView":0,"byteOffset":248904,"componentType":5126,"count":300,"type":"VEC3","min":[-12.5,-11.6658382,0],"max":[11.0822544,9.98026752,25]},{"bufferView":1,"byteOffset":248904,"componentType":5126,"count":300,"type":"VEC3"},{"bufferView":2,"byteOffset":129252,"componentType":5123,"count":900,"type":"SCALAR"},{"bufferView":0,"byteOffset":252504,"componentType":5126,"count":100,"type":"VEC3","min":[-12.5,-11.6658382,0],"max":[11.0822544,9.98026752,25]},{"bufferView":1,"byteOffset":252504,"componentType":5126,"count":100,"type":"VEC3"},{"bufferView":2,"byteOffset":131052,"componentType":5123,"count":300,"type":"SCALAR"}],"materials":[{"pbrMetallicRoughness":{"baseColorFactor":[0.627451003,0.627451003,0.627451003,1],"metallicFactor":0},"doubleSided":true},{"pbrMetallicRoughness":{"baseColorFactor":[0.784313738,0.556862772,0.0274509806,1],"metallicFactor":0},"doubleSided":true},{"pbrMetallicRoughness":{"baseColorFactor":[0.964705884,0.964705884,0.952941179,1],"metallicFactor":0},"doubleSided":true},{"pbrMetallicRoughness":{"baseColorFactor":[0.701960802,0.701960802,0.701960802,1],"metallicFactor":0},"doubleSided":true}],"meshes":[{"primitives":[{"attributes":{"POSITION":0,"NORMAL":1},"mode":4,"indices":2,"material":0}]},{"primitives":[{"attributes":{"POSITION":3,"NORMAL":4},"mode":4,"indices":5,"material":1}]},{"primitives":[{"attributes":{"POSITION":6,"NORMAL":7},"mode":4,"indices":8,"material":2}]},{"primitives":[{"attributes":{"POSITION":9,"NORMAL":10},"mode":4,"indices":11,"material":3}]},{"primitives":[{"attributes":{"POSITION":12,"NORMAL":13},"mode":4,"indices":14,"material":0},{"attributes":{"POSITION":15,"NORMAL":16},"mode":4,"indices":17,"material":2}]},{"primitives":[{"attributes":{"POSITION":18,"NORMAL":19},"mode":4,"indices":20,"material":0},{"attributes":{"POSITION":21,"NORMAL":22},"mode":4,"indices":23,"material":2}]},{"primitives":[{"attributes":{"POSITION":24,"NORMAL":25},"mode":4,"indices":26,"material":2}]},{"primitives":[{"attributes":{"POSITION":27,"NORMAL":28},"mode":4,"indices":29,"material":0},{"attributes":{"POSITION":30,"NORMAL":31},"mode":4,"indices":32,"material":2}]}],"nodes":[{"mesh":0},{"mesh":1},{"mesh":2},{"mesh":3},{"mesh":4},{"mesh":5},{"mesh":6},{"mesh":7},{"children":[0]},{"children":[1]},{"children":[2]},{"children":[3]},{"name":"coque millieu haut","children":[4]},{"name":"coque millieu haut","children":[5]},{"name":"coque millieu haut","children":[6]},{"name":"coque millieu haut","children":[7]}],"scenes":[{"nodes":[8,9,10,11,12,13,14,15]}]}